<svg version="1.1" id="Layer_1" xmlns="http://www.w3.org/2000/svg" xmlns:xlink="http://www.w3.org/1999/xlink" x="0px" y="0px"
	 width="100%" viewBox="0 0 1465 1026" enable-background="new 0 0 1465 1026" xml:space="preserve">
<path fill="#D40000" opacity="1.000000" stroke="none" 
	d="
M1466.000000,569.000000 
	C1466.000000,721.024109 1466.000000,873.048157 1465.552368,1025.536133 
	C977.069824,1026.000000 489.034912,1026.000000 1.000000,1026.000000 
	C1.000000,873.975891 1.000000,721.951843 1.454097,569.366333 
	C160.104034,568.795410 318.299896,568.787598 476.495728,568.773926 
	C491.149200,568.772644 505.802643,568.734924 520.635315,569.033142 
	C522.743103,575.545044 524.491943,581.800659 526.627197,587.921448 
	C559.841003,683.128906 656.804260,743.759094 758.028442,732.042664 
	C822.577026,724.571289 873.845520,693.760498 912.257019,641.492981 
	C928.419617,619.500061 939.224060,594.919983 947.002563,568.740479 
	C1118.176758,568.770325 1288.851929,568.772583 1459.527100,568.785706 
	C1461.684692,568.785889 1463.842407,568.925476 1466.000000,569.000000 
z"/>
<path fill="#008000" opacity="1.000000" stroke="none" 
	d="
M1.000000,459.000000 
	C1.000000,306.360016 1.000000,153.720032 1.000000,1.080040 
	C1.139957,1.053360 1.279915,1.003291 1.419872,1.003290 
	C489.501221,0.999993 977.582581,1.000000 1466.000000,1.000000 
	C1466.000000,153.361206 1466.000000,305.722656 1465.539795,458.491211 
	C1307.096069,458.894318 1149.112549,458.888641 991.129089,458.889160 
	C976.297852,458.889191 961.466553,458.928070 946.451050,458.651611 
	C945.843567,456.917908 945.409424,455.484619 944.998657,454.044647 
	C932.375854,409.795074 908.486084,372.669250 872.783142,343.797485 
	C821.132690,302.029663 761.830994,285.948364 696.421570,297.313232 
	C625.701904,309.600769 573.089966,348.635315 539.091492,411.766296 
	C531.118896,426.570435 526.489929,443.175293 519.836548,458.922607 
	C347.898102,458.891205 176.445663,458.888550 4.993227,458.891113 
	C3.662151,458.891113 2.331076,458.962128 1.000000,459.000000 
M672.852112,177.918289 
	C672.665222,177.778763 672.478333,177.639221 672.354309,176.738770 
	C673.450867,173.003983 672.227173,170.081497 668.901306,168.292038 
	C664.854675,166.114822 660.814514,166.604858 657.168701,169.348755 
	C653.300659,172.259964 654.117554,175.942932 655.949951,179.629471 
	C647.963928,181.529327 645.328491,183.726181 646.288208,188.049042 
	C646.656006,189.705719 647.763916,192.075943 649.047791,192.476608 
	C652.134216,193.439758 655.524109,193.430389 658.891113,193.825058 
	C658.869934,198.996490 655.803955,203.660141 650.327393,205.837982 
	C642.210083,209.065994 636.275513,205.586761 631.448914,199.043625 
	C627.423523,208.953934 621.227905,213.503860 612.267822,213.367554 
	C605.987244,213.272003 602.137146,210.857010 600.355225,205.895248 
	C607.683105,205.260208 610.272461,203.320709 609.979492,198.686447 
	C609.632019,193.191620 605.918823,190.918549 597.323303,190.938797 
	C595.959229,183.399506 592.298218,180.957703 584.196838,182.842941 
	C592.339661,203.388412 600.440491,223.827881 608.537415,244.257477 
	C692.283508,219.655212 774.974670,219.674103 858.467285,244.214935 
	C866.604370,223.593842 874.671021,203.151093 882.831665,182.470169 
	C873.882874,181.455551 871.269104,183.328293 869.439575,191.252228 
	C861.677307,190.559753 857.555115,192.951889 857.007080,198.466843 
	C856.529663,203.270264 858.861145,205.082336 867.125916,206.073227 
	C864.330444,211.699844 859.610168,213.535141 853.962463,213.328949 
	C844.626038,212.988037 838.417664,208.294739 835.544128,198.900528 
	C830.589233,205.693222 824.571655,209.069000 816.427551,205.786224 
	C810.922791,203.567307 807.922485,198.803268 808.125000,193.135315 
	C816.298523,194.409622 819.730408,193.167160 820.571716,188.365662 
	C820.810852,187.001068 820.716248,184.834320 819.875061,184.163254 
	C817.330322,182.133377 814.344116,180.656998 811.360962,178.863266 
	C812.781189,175.876862 813.479187,172.306763 809.927979,169.499390 
	C806.191895,166.545868 801.996338,166.054825 797.787354,168.422806 
	C794.185425,170.449265 793.589722,173.744965 794.106140,177.931854 
	C793.940735,178.088318 793.775330,178.244766 792.836731,178.394089 
	C786.682861,178.302994 783.238281,180.778793 783.263794,185.274734 
	C783.291199,190.117172 786.848511,192.081970 794.867981,191.684036 
	C793.143921,197.818420 788.807373,202.110138 783.022705,201.737823 
	C779.507996,201.511612 775.512878,199.911835 772.859619,197.623444 
	C770.205872,195.334625 768.954285,191.420212 767.034546,188.126602 
	C766.718445,188.561584 766.244324,189.215317 765.768921,189.868057 
	C759.623535,198.304779 751.733215,198.321640 746.193909,189.509308 
	C738.459595,177.205078 739.219727,163.659378 740.601196,149.955872 
	C749.521301,151.063095 752.991333,149.670547 753.471680,144.835938 
	C753.623352,143.308853 753.313477,140.920273 752.321472,140.251907 
	C749.613953,138.427734 746.430054,137.310684 744.799805,136.550217 
	C743.226990,132.966736 742.653320,129.334427 740.535706,127.348480 
	C736.818420,123.862274 731.980713,124.166222 727.484680,126.521492 
	C723.198364,128.766922 722.078796,132.361923 723.966370,136.834961 
	C716.273560,137.326599 712.914917,139.851624 713.309204,144.458817 
	C713.730408,149.379776 717.215637,150.953720 726.205811,150.034897 
	C727.816895,162.538895 728.102417,174.850815 722.425354,186.585938 
	C716.817932,198.177109 706.439697,199.671066 700.215332,188.545242 
	C700.071289,188.287842 699.712280,188.150742 699.445862,187.967865 
	C695.672180,198.218872 690.833008,202.536301 683.778503,201.946106 
	C677.881104,201.452713 673.384094,197.424850 672.213928,191.442612 
	C673.703918,191.603912 675.149719,191.928513 676.583740,191.883087 
	C680.374817,191.762985 683.074097,189.912628 683.509094,186.045013 
	C683.964478,181.996307 681.803406,179.374451 677.831726,178.512024 
	C676.404419,178.202087 674.864441,178.410522 672.852112,177.918289 
z"/>
<path fill="#FFFEFE" opacity="1.000000" stroke="none" 
	d="
M946.635315,458.948914 
	C961.466553,458.928070 976.297852,458.889191 991.129089,458.889160 
	C1149.112549,458.888641 1307.096069,458.894318 1465.539795,458.949158 
	C1466.000000,495.358246 1466.000000,531.716492 1466.000000,568.537354 
	C1463.842407,568.925476 1461.684692,568.785889 1459.527100,568.785706 
	C1288.851929,568.772583 1118.176758,568.770325 947.079956,568.341553 
	C948.776001,552.660645 951.627930,537.463135 952.833923,522.136108 
	C954.511719,500.812042 951.285400,479.761261 946.635315,458.948914 
z"/>
<path fill="#FFFEFE" opacity="1.000000" stroke="none" 
	d="
M1.000000,459.462646 
	C2.331076,458.962128 3.662151,458.891113 4.993227,458.891113 
	C176.445663,458.888550 347.898102,458.891205 519.829712,459.345459 
	C518.197083,475.046692 515.331665,490.238190 514.155579,505.559357 
	C512.519348,526.875488 515.651123,547.929199 520.456116,568.714111 
	C505.802643,568.734924 491.149200,568.772644 476.495728,568.773926 
	C318.299896,568.787598 160.104034,568.795410 1.454097,568.902466 
	C1.000000,532.641785 1.000000,496.283539 1.000000,459.462646 
z"/>
<path fill="#E25555" opacity="1.000000" stroke="none" 
	d="
M1.000000,1026.500000 
	C489.034912,1026.000000 977.069824,1026.000000 1465.552368,1026.000000 
	C1465.833374,1026.333374 1465.684082,1026.943726 1465.497192,1026.955444 
	C1464.169067,1027.038818 1462.833374,1027.000000 1461.500000,1027.000000 
	C974.666687,1027.000000 487.833344,1027.000000 1.000000,1026.500000 
z"/>
<path fill="#000064" opacity="1.000000" stroke="none" 
	d="
M520.635315,569.033081 
	C515.651123,547.929199 512.519348,526.875488 514.155579,505.559357 
	C515.331665,490.238190 518.197083,475.046692 520.315735,459.374512 
	C526.489929,443.175293 531.118896,426.570435 539.091492,411.766296 
	C573.089966,348.635315 625.701904,309.600769 696.421570,297.313232 
	C761.830994,285.948364 821.132690,302.029663 872.783142,343.797485 
	C908.486084,372.669250 932.375854,409.795074 944.998657,454.044647 
	C945.409424,455.484619 945.843567,456.917908 946.451050,458.651611 
	C951.285400,479.761261 954.511719,500.812042 952.833923,522.136108 
	C951.627930,537.463135 948.776001,552.660645 946.580933,568.314819 
	C939.224060,594.919983 928.419617,619.500061 912.257019,641.492981 
	C873.845520,693.760498 822.577026,724.571289 758.028442,732.042664 
	C656.804260,743.759094 559.841003,683.128906 526.627197,587.921448 
	C524.491943,581.800659 522.743103,575.545044 520.635315,569.033081 
M779.211975,566.999268 
	C782.657471,568.326782 786.102966,569.654297 790.222351,571.241394 
	C788.642151,566.331909 787.573975,562.159973 785.948303,558.217896 
	C784.515930,554.744812 784.972778,551.986328 787.163757,549.016479 
	C789.532349,545.805969 791.454590,542.266174 793.920837,538.309387 
	C789.200012,538.309387 785.684998,538.042847 782.229492,538.382202 
	C778.567078,538.741943 776.446045,537.383545 774.733704,534.195190 
	C772.743713,530.489929 770.188110,527.088379 767.489929,522.961426 
	C766.135742,528.568176 765.220398,533.310669 763.760986,537.879333 
	C763.255981,539.460083 761.645996,541.154724 760.111755,541.848083 
	C756.238892,543.598511 752.122192,544.809326 747.559631,546.429382 
	C750.680969,548.945740 753.177490,551.468933 756.132080,553.218933 
	C760.424500,555.761292 761.701538,559.242371 761.291321,563.976135 
	C760.967407,567.714600 761.226196,571.503540 761.226196,576.452759 
	C765.322510,572.995239 768.632446,570.561829 771.487061,567.677795 
	C773.765503,565.375977 775.877563,565.188538 779.211975,566.999268 
M663.111206,519.779907 
	C660.409729,520.356140 657.708252,520.932434 654.085388,521.705200 
	C657.099976,524.841431 659.423218,527.594971 662.099243,529.947205 
	C664.738098,532.266785 665.663330,534.794434 665.072327,538.271362 
	C664.395081,542.256042 664.197571,546.322205 663.703979,551.223450 
	C667.554138,548.709534 670.734131,546.929077 673.559326,544.699158 
	C676.019897,542.757019 678.083740,542.664185 680.698120,544.315918 
	C683.830994,546.295227 687.190186,547.916199 690.947205,549.962341 
	C690.089844,545.152100 689.674438,540.985657 688.540955,537.024841 
	C687.582581,533.676147 688.513184,531.362610 690.669312,528.953857 
	C693.224182,526.099609 695.492554,522.988892 698.205505,519.587524 
	C693.974243,519.041260 690.678467,518.247070 687.393738,518.290283 
	C683.746643,518.338196 682.136414,516.618042 680.900269,513.512085 
	C679.440857,509.845398 677.502930,506.369202 675.507141,502.264679 
	C673.922363,506.269470 672.240723,509.561310 671.336365,513.054443 
	C670.281372,517.129028 668.176392,519.436035 663.111206,519.779907 
M725.497803,436.161499 
	C722.320679,436.906647 719.143494,437.651794 714.364380,438.772675 
	C725.715698,445.461731 727.473633,454.752869 723.139526,466.898254 
	C727.616089,463.953796 730.733521,462.104919 733.614624,459.941406 
	C735.735413,458.348907 737.439758,458.049561 739.802673,459.608398 
	C742.742249,461.547607 746.016541,462.979370 750.800354,465.502838 
	C745.052185,453.520660 747.133728,444.332275 756.667053,436.249634 
	C743.685547,438.643616 739.175842,430.989319 735.936707,421.642792 
	C735.861267,421.425049 735.523010,421.298401 734.973328,420.867432 
	C733.421509,424.829224 732.134949,428.767426 730.315247,432.441589 
	C729.575073,433.935974 727.676208,434.856415 725.497803,436.161499 
M794.438538,491.205688 
	C794.078247,496.284363 793.717957,501.363068 793.262512,507.782288 
	C800.752930,499.348663 808.546143,498.277313 817.322998,505.865204 
	C812.732971,495.035889 815.004639,486.485291 823.954834,479.656677 
	C818.598022,478.557373 813.286560,478.912140 810.259583,476.453949 
	C807.006714,473.812439 805.898621,468.529907 803.612061,463.909485 
	C801.689636,468.789978 801.051941,474.170135 798.028564,477.014221 
	C795.073730,479.793915 789.684814,479.986084 784.137024,481.691376 
	C787.766907,484.983063 790.835999,487.766235 794.438538,491.205688 
M766.646790,663.173340 
	C762.715698,653.773499 765.773071,646.101685 773.509338,639.125793 
	C760.927246,641.549622 756.812805,633.793640 753.353516,624.276001 
	C751.655701,635.058655 746.612061,641.587830 734.592468,641.258179 
	C744.998291,647.538391 746.159790,656.364075 742.751526,666.605713 
	C743.896606,666.342529 744.307800,666.372070 744.522095,666.180847 
	C751.127747,660.287903 757.935181,658.364502 765.295410,664.961975 
	C765.400757,665.056396 766.284607,664.282227 766.646790,663.173340 
z"/>
<path fill="#FACB00" opacity="1.000000" stroke="none" 
	d="
M794.635986,177.500824 
	C793.589722,173.744965 794.185425,170.449265 797.787354,168.422806 
	C801.996338,166.054825 806.191895,166.545868 809.927979,169.499390 
	C813.479187,172.306763 812.781189,175.876862 811.360962,178.863266 
	C814.344116,180.656998 817.330322,182.133377 819.875061,184.163254 
	C820.716248,184.834320 820.810852,187.001068 820.571716,188.365662 
	C819.730408,193.167160 816.298523,194.409622 808.125000,193.135315 
	C807.922485,198.803268 810.922791,203.567307 816.427551,205.786224 
	C824.571655,209.069000 830.589233,205.693222 835.544128,198.900528 
	C838.417664,208.294739 844.626038,212.988037 853.962463,213.328949 
	C859.610168,213.535141 864.330444,211.699844 867.125916,206.073227 
	C858.861145,205.082336 856.529663,203.270264 857.007080,198.466843 
	C857.555115,192.951889 861.677307,190.559753 869.439575,191.252228 
	C871.269104,183.328293 873.882874,181.455551 882.831665,182.470169 
	C874.671021,203.151093 866.604370,223.593842 858.467285,244.214935 
	C774.974670,219.674103 692.283508,219.655212 608.537415,244.257477 
	C600.440491,223.827881 592.339661,203.388412 584.196838,182.842941 
	C592.298218,180.957703 595.959229,183.399506 597.323303,190.938797 
	C605.918823,190.918549 609.632019,193.191620 609.979492,198.686447 
	C610.272461,203.320709 607.683105,205.260208 600.355225,205.895248 
	C602.137146,210.857010 605.987244,213.272003 612.267822,213.367554 
	C621.227905,213.503860 627.423523,208.953934 631.448914,199.043625 
	C636.275513,205.586761 642.210083,209.065994 650.327393,205.837982 
	C655.803955,203.660141 658.869934,198.996490 658.891113,193.825058 
	C655.524109,193.430389 652.134216,193.439758 649.047791,192.476608 
	C647.763916,192.075943 646.656006,189.705719 646.288208,188.049042 
	C645.328491,183.726181 647.963928,181.529327 655.949951,179.629471 
	C654.117554,175.942932 653.300659,172.259964 657.168701,169.348755 
	C660.814514,166.604858 664.854675,166.114822 668.901306,168.292038 
	C672.227173,170.081497 673.450867,173.003983 672.213989,177.352966 
	C672.507812,178.105576 672.941833,178.243973 673.375916,178.382385 
	C674.864441,178.410522 676.404419,178.202087 677.831726,178.512024 
	C681.803406,179.374451 683.964478,181.996307 683.509094,186.045013 
	C683.074097,189.912628 680.374817,191.762985 676.583740,191.883087 
	C675.149719,191.928513 673.703918,191.603912 672.213928,191.442612 
	C673.384094,197.424850 677.881104,201.452713 683.778503,201.946106 
	C690.833008,202.536301 695.672180,198.218872 699.449707,187.962692 
	C699.712280,188.150742 700.071289,188.287842 700.215332,188.545242 
	C706.439697,199.671066 716.817932,198.177109 722.425354,186.585938 
	C728.102417,174.850815 727.816895,162.538895 726.205811,150.034897 
	C717.215637,150.953720 713.730408,149.379776 713.309204,144.458817 
	C712.914917,139.851624 716.273560,137.326599 723.966370,136.834961 
	C722.078796,132.361923 723.198364,128.766922 727.484680,126.521492 
	C731.980713,124.166222 736.818420,123.862274 740.535706,127.348480 
	C742.653320,129.334427 743.226990,132.966736 744.799805,136.550217 
	C746.430054,137.310684 749.613953,138.427734 752.321472,140.251907 
	C753.313477,140.920273 753.623352,143.308853 753.471680,144.835938 
	C752.991333,149.670547 749.521301,151.063095 740.601196,149.955872 
	C739.219727,163.659378 738.459595,177.205078 746.193909,189.509308 
	C751.733215,198.321640 759.623535,198.304779 765.768921,189.868057 
	C766.244324,189.215317 766.718445,188.561584 767.034546,188.126602 
	C768.954285,191.420212 770.205872,195.334625 772.859619,197.623444 
	C775.512878,199.911835 779.507996,201.511612 783.022705,201.737823 
	C788.807373,202.110138 793.143921,197.818420 794.867981,191.684036 
	C786.848511,192.081970 783.291199,190.117172 783.263794,185.274734 
	C783.238281,180.778793 786.682861,178.302994 793.421753,178.562576 
	C794.216492,178.320984 794.426208,177.910889 794.635986,177.500824 
M764.712646,203.060425 
	C763.343018,203.597137 761.807007,203.895721 760.634583,204.714722 
	C756.979370,207.268097 756.070374,212.330902 758.365173,216.269592 
	C760.415222,219.788147 764.964600,221.290909 768.771240,219.706924 
	C772.335388,218.223846 774.639709,213.682068 773.616394,209.799347 
	C772.530884,205.680756 769.884583,203.265442 764.712646,203.060425 
M822.873901,227.555328 
	C825.891602,231.392014 829.718872,232.279282 833.830566,229.816452 
	C837.249084,227.768845 838.708130,224.460449 837.456421,220.422348 
	C836.031067,215.823807 831.296631,213.515854 826.716614,215.082901 
	C822.015564,216.691391 820.389099,221.187057 822.873901,227.555328 
M662.634277,216.955612 
	C665.208557,223.910065 671.771606,226.039688 676.425293,221.351349 
	C679.144531,218.611862 679.889282,215.333939 678.024048,211.818314 
	C676.216797,208.411942 673.241699,206.616531 669.420105,207.358353 
	C664.741882,208.266495 662.401367,211.401215 662.634277,216.955612 
M725.853027,207.530930 
	C724.428894,214.486374 728.840454,219.680435 735.073303,218.380981 
	C738.984863,217.565491 741.257812,214.984314 741.650269,211.200516 
	C742.071289,207.139984 740.079651,204.098129 736.169067,202.702332 
	C731.684692,201.101715 728.460327,202.992645 725.853027,207.530930 
M788.043945,214.727081 
	C788.654541,220.503830 791.825562,223.935349 796.448059,223.821625 
	C800.662842,223.717926 804.454041,220.147995 804.513306,215.895309 
	C804.573303,211.594101 802.411316,208.672775 798.225037,207.480408 
	C793.910217,206.251419 790.525024,208.473038 788.043945,214.727081 
M631.235352,228.224884 
	C634.444824,231.533401 638.525146,232.486435 641.868164,229.539612 
	C643.961182,227.694717 645.616699,223.765320 645.197998,221.132233 
	C644.823486,218.776688 641.631531,215.828644 639.139282,215.156097 
	C636.852112,214.538895 633.232422,215.927155 631.286560,217.655365 
	C628.266968,220.337158 628.424927,224.133820 631.235352,228.224884 
M696.839844,204.946808 
	C693.270325,207.781250 691.674927,211.646484 694.392883,215.329147 
	C696.064148,217.593506 699.617798,219.420792 702.460693,219.631851 
	C706.177917,219.907806 708.674622,216.930573 709.518127,213.135605 
	C710.727539,207.694946 704.935425,201.034012 696.839844,204.946808 
z"/>
<path fill="#F8F8FB" opacity="1.000000" stroke="none" 
	d="
M778.832397,566.865845 
	C775.877563,565.188538 773.765503,565.375977 771.487061,567.677795 
	C768.632446,570.561829 765.322510,572.995239 761.226196,576.452759 
	C761.226196,571.503540 760.967407,567.714600 761.291321,563.976135 
	C761.701538,559.242371 760.424500,555.761292 756.132080,553.218933 
	C753.177490,551.468933 750.680969,548.945740 747.559631,546.429382 
	C752.122192,544.809326 756.238892,543.598511 760.111755,541.848083 
	C761.645996,541.154724 763.255981,539.460083 763.760986,537.879333 
	C765.220398,533.310669 766.135742,528.568176 767.489929,522.961426 
	C770.188110,527.088379 772.743713,530.489929 774.733704,534.195190 
	C776.446045,537.383545 778.567078,538.741943 782.229492,538.382202 
	C785.684998,538.042847 789.200012,538.309387 793.920837,538.309387 
	C791.454590,542.266174 789.532349,545.805969 787.163757,549.016479 
	C784.972778,551.986328 784.515930,554.744812 785.948303,558.217896 
	C787.573975,562.159973 788.642151,566.331909 790.222351,571.241394 
	C786.102966,569.654297 782.657471,568.326782 778.832397,566.865845 
z"/>
<path fill="#FAFAFC" opacity="1.000000" stroke="none" 
	d="
M663.508179,519.671692 
	C668.176392,519.436035 670.281372,517.129028 671.336365,513.054443 
	C672.240723,509.561310 673.922363,506.269470 675.507141,502.264679 
	C677.502930,506.369202 679.440857,509.845398 680.900269,513.512085 
	C682.136414,516.618042 683.746643,518.338196 687.393738,518.290283 
	C690.678467,518.247070 693.974243,519.041260 698.205505,519.587524 
	C695.492554,522.988892 693.224182,526.099609 690.669312,528.953857 
	C688.513184,531.362610 687.582581,533.676147 688.540955,537.024841 
	C689.674438,540.985657 690.089844,545.152100 690.947205,549.962341 
	C687.190186,547.916199 683.830994,546.295227 680.698120,544.315918 
	C678.083740,542.664185 676.019897,542.757019 673.559326,544.699158 
	C670.734131,546.929077 667.554138,548.709534 663.703979,551.223450 
	C664.197571,546.322205 664.395081,542.256042 665.072327,538.271362 
	C665.663330,534.794434 664.738098,532.266785 662.099243,529.947205 
	C659.423218,527.594971 657.099976,524.841431 654.085388,521.705200 
	C657.708252,520.932434 660.409729,520.356140 663.508179,519.671692 
z"/>
<path fill="#FAFAFC" opacity="1.000000" stroke="none" 
	d="
M725.901123,436.099731 
	C727.676208,434.856415 729.575073,433.935974 730.315247,432.441589 
	C732.134949,428.767426 733.421509,424.829224 734.973328,420.867432 
	C735.523010,421.298401 735.861267,421.425049 735.936707,421.642792 
	C739.175842,430.989319 743.685547,438.643616 756.667053,436.249634 
	C747.133728,444.332275 745.052185,453.520660 750.800354,465.502838 
	C746.016541,462.979370 742.742249,461.547607 739.802673,459.608398 
	C737.439758,458.049561 735.735413,458.348907 733.614624,459.941406 
	C730.733521,462.104919 727.616089,463.953796 723.139526,466.898254 
	C727.473633,454.752869 725.715698,445.461731 714.364380,438.772675 
	C719.143494,437.651794 722.320679,436.906647 725.901123,436.099731 
z"/>
<path fill="#F9F9FB" opacity="1.000000" stroke="none" 
	d="
M794.171875,490.877563 
	C790.835999,487.766235 787.766907,484.983063 784.137024,481.691376 
	C789.684814,479.986084 795.073730,479.793915 798.028564,477.014221 
	C801.051941,474.170135 801.689636,468.789978 803.612061,463.909485 
	C805.898621,468.529907 807.006714,473.812439 810.259583,476.453949 
	C813.286560,478.912140 818.598022,478.557373 823.954834,479.656677 
	C815.004639,486.485291 812.732971,495.035889 817.322998,505.865204 
	C808.546143,498.277313 800.752930,499.348663 793.262512,507.782288 
	C793.717957,501.363068 794.078247,496.284363 794.171875,490.877563 
z"/>
<path fill="#F9F9FB" opacity="1.000000" stroke="none" 
	d="
M766.725952,663.543335 
	C766.284607,664.282227 765.400757,665.056396 765.295410,664.961975 
	C757.935181,658.364502 751.127747,660.287903 744.522095,666.180847 
	C744.307800,666.372070 743.896606,666.342529 742.751526,666.605713 
	C746.159790,656.364075 744.998291,647.538391 734.592468,641.258179 
	C746.612061,641.587830 751.655701,635.058655 753.353516,624.276001 
	C756.812805,633.793640 760.927246,641.549622 773.509338,639.125793 
	C765.773071,646.101685 762.715698,653.773499 766.725952,663.543335 
z"/>
<path fill="#088200" opacity="1.000000" stroke="none" 
	d="
M765.104980,203.038849 
	C769.884583,203.265442 772.530884,205.680756 773.616394,209.799347 
	C774.639709,213.682068 772.335388,218.223846 768.771240,219.706924 
	C764.964600,221.290909 760.415222,219.788147 758.365173,216.269592 
	C756.070374,212.330902 756.979370,207.268097 760.634583,204.714722 
	C761.807007,203.895721 763.343018,203.597137 765.104980,203.038849 
z"/>
<path fill="#088200" opacity="1.000000" stroke="none" 
	d="
M822.650513,227.247437 
	C820.389099,221.187057 822.015564,216.691391 826.716614,215.082901 
	C831.296631,213.515854 836.031067,215.823807 837.456421,220.422348 
	C838.708130,224.460449 837.249084,227.768845 833.830566,229.816452 
	C829.718872,232.279282 825.891602,231.392014 822.650513,227.247437 
z"/>
<path fill="#088200" opacity="1.000000" stroke="none" 
	d="
M662.555115,216.592850 
	C662.401367,211.401215 664.741882,208.266495 669.420105,207.358353 
	C673.241699,206.616531 676.216797,208.411942 678.024048,211.818314 
	C679.889282,215.333939 679.144531,218.611862 676.425293,221.351349 
	C671.771606,226.039688 665.208557,223.910065 662.555115,216.592850 
z"/>
<path fill="#0B8300" opacity="1.000000" stroke="none" 
	d="
M725.978394,207.171341 
	C728.460327,202.992645 731.684692,201.101715 736.169067,202.702332 
	C740.079651,204.098129 742.071289,207.139984 741.650269,211.200516 
	C741.257812,214.984314 738.984863,217.565491 735.073303,218.380981 
	C728.840454,219.680435 724.428894,214.486374 725.978394,207.171341 
z"/>
<path fill="#088200" opacity="1.000000" stroke="none" 
	d="
M788.089355,214.338043 
	C790.525024,208.473038 793.910217,206.251419 798.225037,207.480408 
	C802.411316,208.672775 804.573303,211.594101 804.513306,215.895309 
	C804.454041,220.147995 800.662842,223.717926 796.448059,223.821625 
	C791.825562,223.935349 788.654541,220.503830 788.089355,214.338043 
z"/>
<path fill="#088200" opacity="1.000000" stroke="none" 
	d="
M631.020447,227.901688 
	C628.424927,224.133820 628.266968,220.337158 631.286560,217.655365 
	C633.232422,215.927155 636.852112,214.538895 639.139282,215.156097 
	C641.631531,215.828644 644.823486,218.776688 645.197998,221.132233 
	C645.616699,223.765320 643.961182,227.694717 641.868164,229.539612 
	C638.525146,232.486435 634.444824,231.533401 631.020447,227.901688 
z"/>
<path fill="#088200" opacity="1.000000" stroke="none" 
	d="
M697.181641,204.731369 
	C704.935425,201.034012 710.727539,207.694946 709.518127,213.135605 
	C708.674622,216.930573 706.177917,219.907806 702.460693,219.631851 
	C699.617798,219.420792 696.064148,217.593506 694.392883,215.329147 
	C691.674927,211.646484 693.270325,207.781250 697.181641,204.731369 
z"/>
<path fill="#008000" opacity="1.000000" stroke="none" 
	d="
M794.371033,177.716339 
	C794.426208,177.910889 794.216492,178.320984 793.808350,178.566132 
	C793.775330,178.244766 793.940735,178.088318 794.371033,177.716339 
z"/>
<path fill="#008000" opacity="1.000000" stroke="none" 
	d="
M673.114014,178.150330 
	C672.941833,178.243973 672.507812,178.105576 672.182556,177.733429 
	C672.478333,177.639221 672.665222,177.778763 673.114014,178.150330 
z"/>
</svg>