<?xml version="1.0" standalone="no"?>
<!DOCTYPE svg PUBLIC "-//W3C//DTD SVG 20010904//EN"
 "http://www.w3.org/TR/2001/REC-SVG-20010904/DTD/svg10.dtd">
<svg version="1.0" xmlns="http://www.w3.org/2000/svg"
 width="728.000000pt" height="484.000000pt" viewBox="0 0 728.000000 484.000000"
 preserveAspectRatio="xMidYMid meet">

<g transform="translate(0.000000,484.000000) scale(0.100000,-0.100000)"
fill="#000000" stroke="none">
<path d="M3530 4202 c0 -8 21 -34 46 -58 l47 -42 -6 -74 c-3 -40 -1 -97 5
-127 9 -49 7 -57 -12 -84 -18 -24 -21 -38 -17 -76 5 -40 2 -51 -23 -80 l-27
-35 -39 15 c-37 14 -40 18 -57 84 -13 54 -15 78 -7 106 13 48 13 48 -9 42 -12
-3 -25 5 -39 21 -13 17 -26 24 -36 20 -21 -8 -22 -6 19 -47 l36 -36 -2 -88
c-4 -130 17 -175 98 -213 64 -30 132 -87 139 -117 4 -14 -1 -41 -12 -64 -17
-39 -17 -41 5 -86 12 -26 25 -68 28 -95 l6 -48 -139 0 c-104 0 -146 4 -168 15
-15 8 -36 15 -46 15 -27 0 -110 -78 -110 -104 0 -32 10 -38 34 -22 29 19 144
46 195 46 24 0 103 -17 178 -37 153 -42 160 -41 180 27 7 24 17 48 22 53 9 9
152 -8 174 -20 9 -5 -45 -104 -87 -157 -17 -21 -50 -52 -73 -68 -24 -16 -43
-35 -43 -43 0 -20 101 -121 129 -130 29 -9 39 1 23 23 -7 9 -22 37 -33 61 -28
57 -20 71 96 174 111 98 115 103 115 142 0 41 -23 61 -107 92 -37 14 -88 33
-113 42 -57 21 -70 47 -69 136 0 87 -21 170 -67 259 -20 38 -34 77 -31 87 3
10 -1 26 -9 36 -7 10 -14 24 -14 32 0 8 -6 22 -14 30 -10 11 -15 43 -16 96 -3
137 -69 292 -131 308 -13 3 -19 0 -19 -11z"/>
<path d="M2665 4151 c-11 -18 4 -63 30 -91 21 -22 24 -36 27 -129 l3 -104 48
-41 c41 -37 47 -47 47 -82 0 -21 11 -63 25 -92 l25 -53 -24 -24 c-13 -13 -23
-35 -23 -52 0 -15 -4 -45 -8 -65 -6 -28 -2 -47 13 -80 31 -65 44 -128 26 -135
-25 -9 -79 30 -82 61 -3 23 -7 27 -25 22 -12 -4 -35 -9 -52 -13 -38 -8 -107
-45 -112 -59 -3 -8 13 -10 47 -6 37 3 55 0 68 -11 10 -9 27 -14 38 -11 29 8
148 -74 152 -104 2 -12 -6 -34 -17 -48 -16 -21 -21 -41 -21 -93 0 -36 -5 -86
-11 -111 -6 -25 -13 -56 -15 -70 -2 -14 -12 -42 -21 -62 -20 -46 -7 -83 44
-128 60 -53 105 -33 55 24 -24 28 -30 45 -36 108 -6 71 -4 82 35 194 23 65 48
125 55 133 11 12 20 11 61 -7 51 -22 77 -17 88 16 9 32 -24 161 -58 225 -28
54 -32 69 -29 126 2 43 8 71 19 83 41 46 16 211 -43 281 -16 19 -24 41 -24 66
0 29 -7 44 -33 69 -47 45 -86 42 -113 -9 -28 -55 -49 -28 -70 93 -14 82 -30
125 -63 167 -13 17 -20 20 -26 12z"/>
<path d="M4514 3882 c5 -57 3 -66 -25 -112 -36 -59 -59 -65 -59 -17 0 21 -8
39 -21 51 -22 18 -22 18 -14 -5 18 -56 17 -115 -5 -174 -12 -33 -24 -74 -27
-92 -3 -22 -25 -53 -68 -97 l-64 -65 -1 -163 c-2 -257 1 -292 29 -322 27 -28
91 -50 127 -43 63 12 42 -48 -28 -80 -45 -20 -54 -41 -37 -91 14 -44 34 -69
73 -89 37 -19 55 -5 38 32 -16 35 -15 110 2 143 13 25 157 152 172 152 12 0
-5 -90 -25 -134 -10 -23 -35 -64 -55 -90 -30 -40 -46 -76 -33 -76 2 0 36 -11
77 -26 48 -16 82 -23 101 -19 36 8 37 23 4 31 -29 7 -75 58 -75 82 0 8 32 73
70 142 39 69 70 132 70 140 0 18 -59 74 -101 96 -22 11 -67 19 -129 23 -94 6
-95 6 -92 31 2 14 6 61 8 105 3 52 12 93 25 118 11 22 22 59 26 83 5 39 3 48
-21 73 l-26 27 39 76 c51 96 85 239 69 295 -18 67 -31 64 -24 -5z"/>
<path d="M1933 3803 c-7 -2 -13 -13 -13 -23 0 -9 -17 -39 -39 -66 -21 -27 -46
-64 -56 -83 -15 -30 -15 -35 -1 -49 13 -13 23 -14 63 -4 67 15 85 1 101 -75
18 -89 15 -117 -15 -153 -32 -38 -45 -108 -32 -168 5 -24 6 -49 2 -55 -4 -7
-10 -50 -13 -96 -6 -94 -21 -118 -61 -93 -15 9 -37 11 -70 7 -28 -4 -81 -4
-120 0 -56 6 -75 12 -92 31 l-22 24 -35 -20 c-19 -11 -54 -29 -77 -40 -31 -14
-43 -25 -43 -41 0 -16 4 -19 18 -14 9 4 63 12 120 17 91 9 109 7 165 -10 34
-12 100 -28 146 -38 l84 -18 34 40 c45 51 91 133 100 175 3 19 11 37 16 41 12
7 117 -43 136 -65 8 -10 10 -28 6 -51 -5 -23 0 -55 13 -98 27 -80 42 -167 42
-234 0 -38 4 -53 16 -58 9 -3 19 -4 22 -2 4 2 27 1 52 -4 32 -6 55 -4 77 5 45
19 42 41 -4 50 -55 10 -98 40 -118 82 -14 29 -18 65 -19 162 -1 70 2 138 6
153 7 22 0 37 -45 94 -28 38 -69 85 -91 106 -43 42 -50 76 -21 109 18 19 19
19 47 -8 27 -26 37 -28 126 -33 80 -4 103 -9 130 -28 l32 -23 26 20 25 20 -26
17 c-17 11 -58 20 -108 24 -83 7 -143 25 -164 51 -13 16 -47 107 -58 154 -3
17 -18 42 -32 57 -25 26 -25 29 -10 46 22 25 21 60 -3 100 -17 27 -26 32 -58
32 -43 0 -62 -14 -62 -46 0 -18 -12 -28 -56 -48 -54 -25 -84 -32 -84 -21 0 19
37 75 67 101 45 40 30 69 -24 47z"/>
<path d="M1057 3492 c-10 -10 -17 -28 -17 -39 0 -18 -10 -23 -63 -32 -35 -6
-73 -11 -85 -11 -33 0 -102 -31 -102 -45 0 -16 54 -62 97 -83 18 -8 34 -21 37
-28 3 -7 -6 -58 -20 -114 -26 -110 -30 -170 -13 -218 8 -23 7 -37 -4 -59 -8
-15 -25 -75 -37 -133 -20 -93 -26 -110 -60 -145 -21 -22 -54 -73 -75 -113 -21
-40 -53 -86 -72 -103 -32 -28 -34 -33 -28 -72 8 -49 27 -82 55 -97 32 -17 40
-3 24 42 -24 69 -19 92 39 160 57 69 126 153 143 177 10 13 16 11 45 -14 l34
-28 5 59 c9 101 26 120 183 196 105 52 140 74 149 94 12 25 10 29 -32 66 -25
21 -70 50 -100 65 -30 15 -57 28 -59 30 -3 2 21 57 37 82 1 3 20 -13 42 -34
l40 -39 26 25 c14 13 40 51 56 84 17 33 44 77 60 97 29 38 29 40 0 87 -1 3 -9
-5 -18 -17 -8 -12 -20 -20 -25 -17 -5 4 -9 -15 -9 -42 0 -42 -5 -55 -34 -86
-18 -20 -39 -37 -45 -37 -12 0 -41 51 -41 73 0 7 -13 34 -30 60 -35 56 -37 68
-10 85 28 17 28 90 0 120 -25 27 -71 29 -93 4z m-105 -162 c-4 -40 -19 -46
-47 -20 -37 35 -33 52 13 48 33 -3 37 -6 34 -28z m162 -436 c20 -8 21 -24 2
-24 -8 0 -28 -11 -44 -25 -17 -14 -33 -25 -36 -25 -8 0 -8 44 0 64 6 16 48 21
78 10z"/>
<path d="M5604 3368 c-26 -37 -44 -49 -125 -81 -51 -22 -107 -49 -124 -61 -16
-12 -61 -37 -100 -55 -96 -47 -188 -122 -247 -202 -27 -38 -66 -83 -87 -101
-24 -20 -41 -45 -44 -63 -4 -25 0 -33 26 -50 24 -15 33 -30 39 -62 8 -48 34
-103 57 -120 50 -38 172 6 267 98 68 64 87 71 105 37 7 -13 34 -50 62 -83 51
-62 61 -80 71 -127 8 -36 41 -55 63 -36 9 7 30 17 46 23 21 7 34 20 40 40 5
17 18 39 28 51 11 11 19 22 19 25 0 2 -19 4 -43 4 -59 1 -91 26 -139 109 -43
73 -135 196 -146 196 -6 0 -87 -23 -164 -47 -29 -9 -22 32 8 56 15 12 32 21
39 21 15 0 52 43 76 87 9 16 41 43 72 61 31 17 88 61 128 97 40 36 76 65 80
65 10 0 59 82 59 98 0 6 -7 9 -15 6 -12 -5 -14 0 -9 25 9 43 -7 39 -42 -11z
m-24 -88 c0 -21 -49 -59 -121 -96 -41 -20 -85 -45 -98 -55 -25 -20 -61 -25
-61 -10 0 12 37 38 130 89 41 23 86 51 100 62 27 21 50 26 50 10z m-58 -657
c34 -33 51 -74 31 -73 -24 1 -83 71 -83 98 0 20 12 14 52 -25z"/>
<path d="M6023 2781 c-35 -10 -80 -30 -100 -44 -21 -14 -49 -30 -64 -35 -32
-13 -49 -80 -49 -198 0 -170 51 -211 202 -164 34 11 75 20 91 20 15 0 52 14
83 31 52 30 59 31 123 25 53 -5 84 -2 141 13 40 11 107 23 149 27 52 5 80 12
88 23 15 20 6 135 -14 174 -16 32 -33 36 -33 7 0 -11 -6 -20 -14 -20 -10 0
-12 -11 -8 -45 4 -42 3 -45 -24 -56 -18 -7 -67 -9 -131 -6 -101 5 -104 6 -175
50 -40 25 -82 53 -93 61 -20 16 -20 16 5 37 19 16 32 19 60 14 44 -9 299 -21
323 -16 10 2 16 9 14 15 -2 7 -32 11 -78 11 -57 0 -85 6 -124 24 -31 15 -70
25 -105 26 -37 1 -67 9 -90 23 -42 26 -92 27 -177 3z m112 -201 c3 -5 21 -10
38 -10 48 0 109 -20 104 -33 -4 -13 -64 -13 -179 -2 -68 7 -81 18 -56 43 15
15 84 16 93 2z"/>
<path d="M970 2210 c-187 -33 -300 -151 -300 -310 0 -76 33 -153 87 -201 57
-52 150 -92 307 -134 155 -41 195 -61 221 -108 15 -29 16 -39 5 -71 -6 -20
-23 -44 -36 -53 -13 -8 -24 -19 -24 -24 0 -5 79 -9 176 -9 l175 0 16 38 c10
23 17 68 17 122 1 74 -3 92 -27 142 -54 110 -168 171 -439 233 -132 30 -168
51 -168 96 0 45 15 65 62 84 85 34 175 -3 211 -85 18 -40 26 -49 42 -46 11 3
80 8 153 12 l133 7 -6 41 c-17 104 -94 199 -191 235 -32 12 -80 27 -108 32
-58 11 -242 10 -306 -1z"/>
<path d="M1670 1750 l0 -450 454 0 c406 0 455 2 460 16 3 9 4 20 0 25 -3 5
-132 9 -295 9 l-290 0 3 113 3 112 263 3 262 2 0 105 0 105 -262 2 -263 3 0
90 0 90 283 3 282 2 0 110 0 110 -450 0 -450 0 0 -450z"/>
<path d="M2632 1753 l3 -448 133 -3 132 -3 0 306 c0 193 4 305 10 305 5 0 12
-12 16 -27 3 -16 10 -44 15 -63 6 -19 36 -139 69 -267 32 -128 61 -237 65
-243 4 -6 69 -10 175 -10 152 0 169 2 174 18 8 26 63 239 107 412 21 85 42
162 46 170 5 8 10 -122 13 -290 l5 -305 135 0 135 0 3 448 2 447 -224 0 -224
0 -10 -42 c-5 -24 -31 -124 -57 -223 -25 -99 -58 -225 -72 -280 -14 -55 -27
-102 -29 -104 -8 -9 -17 10 -29 61 -7 29 -34 134 -60 233 -26 99 -57 218 -68
265 l-22 85 -223 3 -222 2 2 -447z"/>
<path d="M3912 1753 l3 -448 458 -3 457 -2 0 25 0 25 -290 0 -291 0 3 113 3
112 263 3 263 2 -3 103 -3 102 -260 5 -260 5 0 90 0 90 283 3 282 2 0 110 0
110 -455 0 -455 0 2 -447z"/>
<path d="M4880 1750 l0 -450 430 0 430 0 0 35 0 35 -262 2 -263 3 -3 413 -2
412 -165 0 -165 0 0 -450z"/>
<path d="M5790 1750 l0 -450 168 2 167 3 -3 65 c-2 36 0 84 3 108 l6 42 136 0
c184 0 271 22 344 88 31 28 61 67 77 101 23 49 26 69 26 161 -1 80 -5 114 -19
145 -43 95 -102 144 -202 170 -45 12 -127 15 -380 15 l-323 0 0 -450z m512
230 c52 -15 88 -61 88 -113 0 -91 -47 -127 -174 -134 -81 -6 -83 -5 -89 18 -8
31 -9 202 -1 223 5 12 21 16 73 16 36 0 83 -5 103 -10z"/>
<path d="M725 1471 c-87 -6 -90 -7 -93 -31 -1 -14 6 -50 16 -80 l19 -55 204
-3 c203 -2 204 -2 174 17 -47 28 -84 78 -91 122 l-7 39 -66 -2 c-36 -1 -106
-4 -156 -7z"/>
<path d="M710 1242 c0 -19 80 -83 133 -106 80 -36 181 -49 327 -44 167 7 256
37 343 116 15 14 27 29 27 34 0 4 -187 8 -415 8 -228 0 -415 -4 -415 -8z"/>
<path d="M1670 1180 l0 -70 458 2 457 3 0 65 0 65 -457 3 -458 2 0 -70z"/>
<path d="M2630 1180 l0 -70 135 0 135 0 0 70 0 70 -135 0 -135 0 0 -70z"/>
<path d="M3090 1240 c0 -6 8 -37 17 -70 l16 -61 125 3 125 3 18 62 c9 34 14
64 11 67 -10 11 -312 7 -312 -4z"/>
<path d="M3590 1180 l0 -70 140 0 140 0 0 70 0 70 -140 0 -140 0 0 -70z"/>
<path d="M3910 1180 l0 -70 460 0 460 0 0 70 0 70 -460 0 -460 0 0 -70z"/>
<path d="M4880 1180 l0 -70 430 0 430 0 0 70 0 70 -430 0 -430 0 0 -70z"/>
<path d="M5790 1180 l0 -70 168 2 167 3 0 65 0 65 -167 3 -168 2 0 -70z"/>
</g>
</svg>
