<?xml version="1.0" standalone="no"?>
<!DOCTYPE svg PUBLIC "-//W3C//DTD SVG 20010904//EN"
 "http://www.w3.org/TR/2001/REC-SVG-20010904/DTD/svg10.dtd">
<svg version="1.0" xmlns="http://www.w3.org/2000/svg"
 width="1465.000000pt" height="1026.000000pt" viewBox="0 0 1465.000000 1026.000000"
 preserveAspectRatio="xMidYMid meet">

<g transform="translate(0.000000,1026.000000) scale(0.100000,-0.100000)"
fill="#000000" stroke="none">
<path d="M0 7970 l0 -2290 2596 0 2596 0 -5 -27 c-2 -16 -15 -82 -28 -148 -20
-105 -23 -151 -23 -370 0 -217 3 -266 23 -370 12 -66 25 -135 28 -152 l6 -33
-2597 0 -2596 0 0 -2285 0 -2285 7325 0 7325 0 0 2285 0 2285 -2596 0 -2597 0
7 38 c3 20 15 87 26 147 44 236 35 613 -19 838 l-18 77 2598 0 2599 0 0 2290
0 2290 -7325 0 -7325 0 0 -2290z m7400 1023 c27 -23 31 -31 27 -60 -5 -31 -4
-33 24 -33 35 0 79 -39 79 -70 0 -11 -12 -32 -26 -47 -21 -21 -31 -24 -64 -19
-48 7 -50 2 -50 -114 0 -150 35 -259 100 -314 52 -43 114 -30 152 32 l22 36
13 -41 c18 -52 70 -102 114 -109 48 -8 104 17 129 58 11 18 20 35 20 38 0 3
-17 4 -39 2 -32 -3 -42 1 -60 23 -28 36 -27 60 5 91 19 20 33 25 59 22 32 -4
33 -3 28 28 -12 70 88 112 150 64 32 -25 40 -50 28 -83 -9 -23 -7 -25 24 -31
35 -7 65 -38 65 -67 0 -9 -10 -29 -22 -44 -19 -24 -26 -27 -66 -22 l-44 5 6
-32 c8 -40 65 -93 110 -101 50 -10 80 0 125 40 l38 34 17 -40 c11 -24 34 -50
58 -66 74 -49 197 -40 228 16 14 27 14 26 -26 27 -65 1 -87 72 -38 120 20 21
33 25 64 22 37 -3 39 -2 42 26 4 40 44 68 90 64 l36 -3 -92 -240 c-95 -245
-150 -375 -160 -375 -3 0 -54 13 -113 30 -238 67 -555 120 -838 141 -174 13
-553 7 -720 -11 -174 -18 -456 -69 -621 -111 -87 -23 -168 -43 -179 -45 -23
-6 -40 31 -181 396 l-83 215 35 3 c45 4 83 -20 91 -58 5 -27 9 -30 45 -30 101
0 125 -142 24 -144 -40 -1 -40 0 -26 -27 28 -52 136 -65 211 -26 31 16 52 37
70 70 l25 47 25 -26 c71 -77 176 -68 229 19 32 52 27 66 -20 60 -76 -10 -117
61 -65 112 13 14 35 25 49 25 23 0 25 2 15 26 -12 34 -4 58 28 84 62 48 162 6
150 -64 -5 -31 -4 -32 28 -28 26 3 40 -2 59 -22 14 -14 26 -34 26 -46 0 -11
-12 -32 -26 -46 -20 -20 -33 -25 -60 -22 -42 5 -44 -9 -8 -51 29 -35 89 -57
128 -47 41 10 95 64 108 107 l11 40 20 -31 c22 -36 64 -60 103 -60 39 0 96 63
123 135 25 65 39 223 27 289 -7 36 -7 36 -46 30 -33 -5 -42 -2 -64 19 -14 15
-26 36 -26 47 0 31 44 70 79 70 28 0 29 2 24 33 -7 47 40 87 102 87 33 0 51
-7 75 -27z m82 -3078 c37 -4 68 -9 68 -12 0 -3 -21 -31 -46 -64 l-47 -59 12
-62 c7 -35 15 -71 18 -82 4 -15 -6 -13 -63 18 l-68 36 -60 -40 c-33 -21 -62
-38 -63 -36 -2 1 2 38 7 81 l10 79 -52 53 c-28 29 -50 54 -47 57 2 2 33 10 68
18 64 14 64 14 83 63 41 111 36 109 76 28 l36 -71 68 -7z m578 -354 l32 -68
61 -7 c33 -3 63 -8 65 -11 3 -3 -14 -28 -38 -56 -41 -49 -42 -52 -36 -101 4
-28 10 -64 13 -80 l6 -30 -55 31 c-30 17 -60 31 -67 31 -6 0 -35 -16 -63 -35
-29 -19 -53 -33 -55 -31 -2 2 1 36 7 76 l10 74 -51 52 -52 53 29 6 c101 22
105 26 133 98 14 37 27 67 28 67 1 0 16 -31 33 -69z m-1275 -395 l33 -73 47
-7 c26 -3 61 -6 76 -6 16 0 29 -3 29 -6 0 -3 -22 -33 -50 -66 -27 -33 -50 -63
-50 -68 0 -5 7 -44 15 -87 8 -43 15 -79 15 -81 0 -2 -29 13 -63 33 -35 19 -69
35 -76 35 -7 0 -39 -18 -72 -41 l-61 -41 7 89 7 89 -52 57 c-29 32 -51 59 -49
61 2 2 35 9 72 17 l69 14 30 78 c16 42 32 77 34 77 3 0 20 -33 39 -74z m929
-201 l47 -74 84 -3 84 -3 -44 -70 c-25 -38 -45 -77 -45 -86 0 -8 11 -49 25
-89 14 -40 24 -75 22 -76 -2 -2 -36 10 -77 25 l-74 29 -47 -39 c-25 -21 -52
-45 -59 -54 -24 -29 -30 -14 -30 79 l0 94 -65 52 c-36 28 -65 53 -65 55 0 2
29 13 65 25 36 12 71 28 78 35 7 7 22 49 32 94 10 44 19 81 21 81 1 0 23 -34
48 -75z m-153 -1009 l30 -65 65 -6 c35 -4 64 -9 64 -12 0 -2 -20 -29 -44 -58
-41 -50 -43 -57 -36 -92 4 -21 11 -55 15 -77 l6 -38 -54 31 c-30 17 -60 31
-66 31 -7 0 -35 -16 -63 -35 -29 -19 -53 -33 -54 -32 -2 1 2 36 7 77 l9 74
-51 52 -51 52 58 12 c33 7 64 16 70 21 6 5 21 36 33 69 12 33 24 60 27 60 3 0
19 -29 35 -64z"/>
<path d="M7295 8241 c-36 -15 -50 -42 -46 -93 2 -30 38 -58 76 -58 54 0 81 34
75 95 -4 42 -63 73 -105 56z"/>
<path d="M7597 8220 c-33 -26 -43 -70 -23 -108 17 -32 34 -42 72 -42 39 0 61
17 73 53 14 41 2 78 -31 101 -30 21 -60 20 -91 -4z"/>
<path d="M6959 8220 c-9 -5 -22 -22 -28 -38 -24 -57 28 -120 88 -107 46 10 66
40 62 98 -3 45 -77 73 -122 47z"/>
<path d="M6665 8189 c-41 -23 -56 -68 -39 -114 10 -24 60 -46 89 -39 31 8 65
49 65 80 0 51 -72 97 -115 73z"/>
<path d="M7924 8190 c-12 -5 -29 -19 -38 -32 -44 -63 20 -142 94 -117 34 12
50 35 50 73 0 38 -10 55 -41 71 -32 17 -36 17 -65 5z"/>
<path d="M6322 8113 c-21 -8 -43 -61 -36 -88 8 -31 49 -65 78 -65 29 0 65 27
76 56 11 29 -5 81 -30 94 -20 10 -66 12 -88 3z"/>
<path d="M8237 8108 c-46 -36 -39 -107 15 -137 51 -29 128 27 114 83 -14 57
-85 87 -129 54z"/>
</g>
</svg>
